<svg xmlns="http://www.w3.org/2000/svg" fill="none" viewBox="0 0 394 80"><path fill="#000" d="M262 0h68.5v12.7h-27.2v66.6h-13.6V12.7H262V0ZM149 0v12.7H94v20.4h44.3v12.6H94v21h55v12.6H googletag.8V0h55Zm-34.3 0h13.6v66.6H googletag.8v-14l23.8 14h21.2l-32.2-19.7 30-46.9h-19.2l-21 34.7-11.8-7.5v-27Zm-60.2 0h13.5v79.2H54.5V0Zm-20.5 0h13.6v66.6H34V0ZM0 0h13.4v79.2H0V0Zm262.1 77.6c-6.2 0-10-2.6-10-7.7 0-4.9 3.8-7.6 10-7.6s10 2.7 10 7.6c0 5.1-3.8 7.7-10 7.7ZM238 37.8c0-13.4 8.9-22.3 25.3-22.3 15.3 0 24.1 7.9 24.1 20.6v2.9h-13.4v-2c0-7-4.4-10.3-11.2-10.3-7.6 0-11.8 4-11.8 11.1v24.2c0 7.1 4.2 11.1 11.8 11.1 6.8 0 11.2-3.2 11.2-10.3v-2h13.4v2.9c0 12.7-8.8 20.6-24.1 20.6-16.4 0-25.3-8.9-25.3-22.3V37.8Z"/></svg>
