<svg xmlns="http://www.w3.org/2000/svg" fill="none" viewBox="0 0 283 64"><path fill="black" d="M141 16c-11 0-19 7-19 18s9 18 20 18c7 0 13-3 16-7l-7-5c-2 3-6 4-9 4-5 0-9-3-10-7h28v-3c0-11-8-18-19-18Zm-9 15c1-4 4-7 9-7s8 3 9 7h-18Zm117-15c-11 0-19 7-19 18s9 18 20 18c7 0 13-3 16-7l-7-5c-2 3-6 4-9 4-5 0-9-3-10-7h28v-3c0-11-8-18-19-18Zm-9 15c1-4 4-7 9-7s8 3 9 7h-18Zm-39 3c0 6 4 10 10 10 4 0 7-2 8-5l7 3c-3 6-9 10-15 10-11 0-19-7-19-18s8-18 19-18c6 0 12 4 15 10l-7 3c-1-3-4-5-8-5-6 0-10 4-10 10Zm83-28v46h-9V6h9Zm-39 0v46h-9V6h9Zm-62 28c0 6 4 10 10 10 4 0 7-2 8-5l7 3c-3 6-9 10-15 10-11 0-19-7-19-18s8-18 19-18c6 0 12 4 15 10l-7 3c-1-3-4-5-8-5-6 0-10 4-10 10Zm-34 0c0 6 5 10 11 10s11-4 11-10-5-10-11-10-11 4-11 10Zm-9 0c0-11 9-18 20-18s20 7 20 18-9 18-20 18-20-7-20-18ZM39 52V6H0v46h39Z"/></svg>
